<svg width="44" height="35" viewBox="0 0 44 35" fill="none" xmlns="http://www.w3.org/2000/svg">
<path fill-rule="evenodd" clip-rule="evenodd" d="M25.976 7.69366C25.4593 7.69366 24.9638 7.89374 24.5984 8.24987C24.2331 8.606 24.0278 9.08901 24.0278 9.59265V24.7846C24.0278 25.2882 24.2331 25.7712 24.5984 26.1274C24.9638 26.4835 25.4593 26.6836 25.976 26.6836H33.7687C34.2854 26.6836 34.7809 26.4835 35.1463 26.1274C35.5116 25.7712 35.7169 25.2882 35.7169 24.7846V9.59265C35.7169 9.08901 35.5116 8.606 35.1463 8.24987C34.7809 7.89374 34.2854 7.69366 33.7687 7.69366H25.976ZM31.8205 11.4916H27.9242V22.8856H31.8205V11.4916Z" fill="white"/>
<path d="M10.3906 7.69366C9.87387 7.69366 9.37834 7.89374 9.01299 8.24987C8.64764 8.606 8.44238 9.08901 8.44238 9.59265C8.44238 10.0963 8.64764 10.5793 9.01299 10.9354C9.37834 11.2916 9.87387 11.4916 10.3906 11.4916H18.1832C18.6999 11.4916 19.1955 11.2916 19.5608 10.9354C19.9262 10.5793 20.1314 10.0963 20.1314 9.59265C20.1314 9.08901 19.9262 8.606 19.5608 8.24987C19.1955 7.89374 18.6999 7.69366 18.1832 7.69366H10.3906Z" fill="white"/>
<path d="M10.3906 15.2897C9.87387 15.2897 9.37834 15.4897 9.01299 15.8459C8.64764 16.202 8.44238 16.685 8.44238 17.1887C8.44238 17.6923 8.64764 18.1753 9.01299 18.5315C9.37834 18.8876 9.87387 19.0877 10.3906 19.0877H18.1832C18.6999 19.0877 19.1955 18.8876 19.5608 18.5315C19.9262 18.1753 20.1314 17.6923 20.1314 17.1887C20.1314 16.685 19.9262 16.202 19.5608 15.8459C19.1955 15.4897 18.6999 15.2897 18.1832 15.2897H10.3906Z" fill="white"/>
<path d="M8.44238 24.7847C8.44238 24.281 8.64764 23.798 9.01299 23.4419C9.37834 23.0858 9.87387 22.8857 10.3906 22.8857H18.1832C18.6999 22.8857 19.1955 23.0858 19.5608 23.4419C19.9262 23.798 20.1314 24.281 20.1314 24.7847C20.1314 25.2883 19.9262 25.7713 19.5608 26.1275C19.1955 26.4836 18.6999 26.6837 18.1832 26.6837H10.3906C9.87387 26.6837 9.37834 26.4836 9.01299 26.1275C8.64764 25.7713 8.44238 25.2883 8.44238 24.7847Z" fill="white"/>
<path fill-rule="evenodd" clip-rule="evenodd" d="M6.49442 0.0977783C4.94436 0.0977783 3.45778 0.697993 2.36172 1.76638C1.26566 2.83477 0.649902 4.28382 0.649902 5.79475V28.5826C0.649902 30.0936 1.26566 31.5426 2.36172 32.611C3.45778 33.6794 4.94436 34.2796 6.49442 34.2796H37.6652C39.2152 34.2796 40.7018 33.6794 41.7979 32.611C42.8939 31.5426 43.5097 30.0936 43.5097 28.5826V5.79475C43.5097 4.28382 42.8939 2.83477 41.7979 1.76638C40.7018 0.697993 39.2152 0.0977783 37.6652 0.0977783H6.49442ZM37.6652 3.89576H6.49442C5.97773 3.89576 5.48221 4.09583 5.11685 4.45196C4.7515 4.80809 4.54625 5.2911 4.54625 5.79475V28.5826C4.54625 29.0863 4.7515 29.5693 5.11685 29.9254C5.48221 30.2815 5.97773 30.4816 6.49442 30.4816H37.6652C38.1819 30.4816 38.6774 30.2815 39.0427 29.9254C39.4081 29.5693 39.6133 29.0863 39.6133 28.5826V5.79475C39.6133 5.2911 39.4081 4.80809 39.0427 4.45196C38.6774 4.09583 38.1819 3.89576 37.6652 3.89576Z" fill="white"/>
</svg>
